<?xml version="1.0" encoding="utf-8"?>
<!-- Generator: Adobe Illustrator 23.0.6, SVG Export Plug-In . SVG Version: 6.00 Build 0)  -->
<svg version="1.1" id="Layer_1" xmlns="http://www.w3.org/2000/svg" xmlns:xlink="http://www.w3.org/1999/xlink" x="0px" y="0px"
	 viewBox="0 0 439.8 165.85" style="enable-background:new 0 0 439.8 165.85;" xml:space="preserve">
<style type="text/css">
	.st0{fill:none;}
	.st1{fill:#009FDB;}
</style>
<g>
	<rect x="-73.07" y="-72" class="st0" width="584.87" height="310.16"/>
	<g>
		<path class="st1" d="M107.75,10.15C96.96,3.68,84.44,0,70.92,0c-13.6,0-26.51,3.81-37.34,10.45c-3.25,2-5.08,3.6-5.08,5.66
			c0,6.08,14.19,12.6,39.36,12.6c24.91,0,44.23-7.15,44.23-14.04C112.09,13.04,110.66,11.89,107.75,10.15 M118.47,18.15
			c0.3,0.47,0.45,0.98,0.45,1.66c0,8-24.47,22.15-63.43,22.15c-28.62,0-33.98-10.62-33.98-17.38c0-2.41,0.93-4.89,2.96-7.39
			c0.11-0.15,0.02-0.21-0.11-0.09c-3.72,3.15-7.13,6.7-10.13,10.53c-1.43,1.81-2.32,3.42-2.32,4.38c0,14,35.09,24.15,67.9,24.15
			c34.96,0,50.57-11.42,50.57-21.45c0-3.59-1.39-5.68-4.96-9.74c-2.32-2.64-4.51-4.79-6.83-6.91
			C118.47,17.96,118.4,18.04,118.47,18.15 M5.87,41.11C3.76,45.3,1.42,52.38,0.72,56.04c-0.3,1.57-0.17,2.32,0.38,3.49
			c4.42,9.38,26.75,24.38,78.87,24.38c31.79,0,56.49-7.81,60.49-22.07c0.74-2.62,0.77-5.4-0.17-9.13
			c-1.06-4.17-3.04-9.04-4.72-12.45c-0.06-0.11-0.15-0.1-0.13,0.04c0.62,18.7-51.51,30.76-77.81,30.76
			c-28.49,0-52.26-11.36-52.26-25.7c0-1.38,0.28-2.75,0.64-4.19C6.04,41.02,5.92,41,5.87,41.11 M56.45,100.87
			c-36.85,0-54.22-17.17-57.38-28.89c-0.04-0.17-0.15-0.13-0.15,0.02c0,3.94,0.4,9.04,1.07,12.41c0.32,1.64,1.66,4.23,3.62,6.28
			c8.92,9.3,31.17,22.34,69.7,22.34c52.49,0,64.49-17.49,66.94-23.24c1.76-4.11,2.66-11.55,2.66-17.79c0-1.51-0.04-2.72-0.1-3.91
			c0-0.19-0.11-0.21-0.15-0.02C140.06,82.15,95.21,100.87,56.45,100.87 M75.81,132.55c17.72,0,37.19-4.83,48.83-14.4
			c3.19-2.6,6.22-6.08,8.94-10.74c1.57-2.68,3.09-5.87,4.34-9c0.06-0.15-0.04-0.22-0.15-0.06c-10.83,15.94-42.19,25.89-74.57,25.89
			c-22.89,0-47.51-7.32-57.15-21.3c-0.09-0.13-0.19-0.08-0.13,0.08C14.91,122.11,42.15,132.55,75.81,132.55 M26.77,128.87
			C38.98,138.32,54.3,144,70.92,144c18.19,0,34.77-6.76,47.43-17.85c0.15-0.13,0.08-0.23-0.07-0.13
			c-5.68,3.79-21.87,12.08-47.36,12.08c-22.15,0-36.15-4.94-44.06-9.36C26.72,128.66,26.66,128.77,26.77,128.87"/>
		<path d="M275.83,115.16c1.4,0,2.37-0.97,2.37-2.37V43.2h23.63c1.4,0,2.37-0.97,2.37-2.37v-9.6c0-1.4-0.97-2.38-2.37-2.38h-62.9
			c-1.4,0-2.37,0.97-2.37,2.38v9.6c0,1.4,0.97,2.37,2.37,2.37h23.62v69.58c0,1.4,0.97,2.37,2.37,2.37H275.83z M383.49,112.14
			c1.4,1.51,0.54,3.02-1.19,3.02h-13.7c-1.83,0-2.81-0.43-3.99-1.84l-8.2-9.06c-5.5,7.34-13.16,12.84-25.89,12.84
			c-15.75,0-28.16-9.49-28.16-25.78c0-12.52,6.69-19.21,16.83-24.81c-4.96-5.72-7.23-11.76-7.23-17.04
			c0-13.38,9.39-22.55,23.52-22.55c14.46,0,23.3,8.53,23.3,21.15c0,10.78-7.77,16.82-15.97,21.36l12.08,13.06l6.8-11.87
			c0.86-1.4,1.84-1.94,3.56-1.94h10.46c1.73,0,2.7,1.19,1.62,3.02l-12.09,20.71L383.49,112.14z M335.7,40.28
			c-5.61,0-8.85,3.56-8.85,8.31c0,3.67,1.94,6.91,6.36,11.65c7.66-4.42,10.89-7.12,10.89-11.87
			C344.11,43.95,341.31,40.28,335.7,40.28 M330.84,103.5c6.9,0,11.54-3.34,15.32-9.06l-17.47-18.77
			c-6.69,3.78-11.01,7.55-11.01,15.11C317.68,98.22,323.72,103.5,330.84,103.5 M247.04,112.35c0.54,1.4-0.32,2.81-1.83,2.81h-11.22
			c-1.62,0-2.59-0.75-3.13-2.27l-6.37-18.34h-34.84l-6.37,18.34c-0.54,1.51-1.51,2.27-3.13,2.27h-10.57c-1.4,0-2.37-1.4-1.83-2.81
			l29.24-81.34c0.54-1.51,1.51-2.16,3.12-2.16h14.46c1.62,0,2.69,0.64,3.24,2.16L247.04,112.35z M219.53,80.42l-12.4-35.6
			l-12.52,35.6H219.53z M400.53,115.16c-1.4,0-2.37-0.97-2.37-2.37V43.2h-23.63c-1.4,0-2.37-0.97-2.37-2.37v-9.6
			c0-1.4,0.97-2.38,2.37-2.38h62.9c1.4,0,2.37,0.97,2.37,2.38v9.6c0,1.4-0.97,2.37-2.37,2.37H413.8v69.58c0,1.4-0.97,2.37-2.37,2.37
			H400.53z M175.83,144.12h2.51l8.29,21.73h-2.64l-2.17-5.96h-9.59l-2.14,5.96h-2.54L175.83,144.12z M173.03,157.66h7.98l-4-10.99
			L173.03,157.66z M202.11,149.74v16.11h-1.99l-0.25-1.86c-0.91,0.75-1.82,1.29-2.73,1.65c-0.91,0.35-1.88,0.53-2.92,0.53
			c-1.76,0-3.09-0.54-4-1.63c-0.91-1.09-1.37-2.66-1.37-4.73v-10.06h2.33v9.87c0,2.92,1.26,4.38,3.79,4.38
			c1.59,0,3.2-0.65,4.81-1.96v-12.29H202.11z M212.51,166.16c-1.7,0-2.95-0.48-3.76-1.44c-0.81-0.96-1.21-2.45-1.21-4.45v-8.5h-2.89
			v-2.02h2.95l0.4-4.59h1.86v4.59h5.68v2.02h-5.68v8.26c0,2.71,1,4.07,3.01,4.07c0.99,0,1.92-0.25,2.79-0.75l0.56,1.8
			c-0.5,0.31-1.08,0.56-1.75,0.75C213.81,166.07,213.15,166.16,212.51,166.16z M218.87,165.85v-23.28h2.33v9.06
			c0.95-0.79,1.87-1.35,2.75-1.71c0.88-0.35,1.84-0.53,2.87-0.53c1.76,0,3.1,0.54,4.03,1.63c0.93,1.09,1.4,2.67,1.4,4.76v10.06
			h-2.33v-9.87c0-2.94-1.28-4.41-3.85-4.41c-1.68,0-3.3,0.67-4.87,2.02v12.26H218.87z M250.78,157.78c0,1.66-0.35,3.12-1.04,4.41
			c-0.69,1.28-1.62,2.27-2.79,2.95c-1.17,0.68-2.49,1.02-3.96,1.02c-1.55,0-2.92-0.37-4.1-1.12c-1.18-0.75-2.09-1.75-2.73-3.01
			c-0.64-1.26-0.96-2.68-0.96-4.25c0-1.66,0.35-3.12,1.04-4.41c0.69-1.28,1.62-2.27,2.79-2.95c1.17-0.68,2.49-1.02,3.96-1.02
			c1.55,0,2.92,0.37,4.1,1.12c1.18,0.75,2.09,1.75,2.73,3.01C250.46,154.79,250.78,156.21,250.78,157.78z M248.42,157.78
			c0-1.86-0.51-3.38-1.52-4.55c-1.01-1.17-2.32-1.75-3.91-1.75c-1.59,0-2.9,0.58-3.91,1.75c-1.01,1.17-1.52,2.68-1.52,4.55
			c0,1.86,0.51,3.38,1.52,4.55c1.01,1.17,2.32,1.75,3.91,1.75c1.59,0,2.9-0.58,3.91-1.75C247.91,161.16,248.42,159.64,248.42,157.78
			z M262.48,151.79c-0.48-0.08-0.96-0.12-1.46-0.12c-1.66,0-3.27,0.65-4.84,1.96v12.23h-2.33v-16.11h1.99l0.25,1.95
			c1.63-1.53,3.43-2.3,5.4-2.3c0.41,0,0.85,0.05,1.3,0.16L262.48,151.79z M266.95,143.29c0.48,0,0.85,0.14,1.13,0.42
			c0.28,0.28,0.42,0.64,0.42,1.07c0,0.43-0.14,0.79-0.42,1.07c-0.28,0.28-0.66,0.42-1.13,0.42c-0.48,0-0.85-0.14-1.13-0.42
			c-0.28-0.28-0.42-0.64-0.42-1.07c0-0.43,0.14-0.79,0.42-1.07C266.1,143.43,266.47,143.29,266.95,143.29z M265.77,149.74h2.33
			v16.11h-2.33V149.74z M271.91,164.08l9.4-12.32h-9.03v-2.02h11.89v1.77l-9.4,12.32h9.62v2.02h-12.48V164.08z M288.64,158.65
			c0.17,1.68,0.76,3,1.78,3.97c1.02,0.97,2.34,1.46,3.96,1.46c0.97,0,1.82-0.09,2.54-0.28c0.72-0.19,1.5-0.52,2.33-0.99l0.78,1.8
			c-0.89,0.54-1.8,0.93-2.72,1.18c-0.92,0.25-1.96,0.37-3.12,0.37c-1.61,0-3.02-0.36-4.22-1.09c-1.2-0.72-2.12-1.71-2.76-2.96
			c-0.64-1.25-0.96-2.69-0.96-4.3c0-1.66,0.34-3.12,1.01-4.41c0.67-1.28,1.57-2.27,2.69-2.96c1.12-0.69,2.35-1.04,3.69-1.04
			c1.39,0,2.59,0.33,3.62,0.98c1.02,0.65,1.82,1.55,2.37,2.68c0.56,1.14,0.84,2.42,0.84,3.85c0,0.58-0.02,1.16-0.06,1.74H288.64z
			 M293.67,151.48c-1.32,0-2.44,0.47-3.34,1.4c-0.9,0.93-1.45,2.18-1.66,3.75h9.44v-0.16c0-0.95-0.19-1.82-0.57-2.59
			c-0.38-0.78-0.91-1.37-1.57-1.78C295.3,151.69,294.54,151.48,293.67,151.48z M316.89,142.57v23.28h-1.99l-0.22-1.68
			c-0.87,0.72-1.71,1.24-2.53,1.54c-0.82,0.3-1.76,0.45-2.84,0.45c-1.37,0-2.56-0.36-3.57-1.09c-1.01-0.72-1.8-1.71-2.34-2.96
			c-0.55-1.25-0.82-2.69-0.82-4.3c0-1.68,0.31-3.16,0.93-4.44c0.62-1.28,1.47-2.27,2.56-2.95c1.09-0.68,2.31-1.02,3.68-1.02
			c1.74,0,3.34,0.54,4.81,1.61v-8.44H316.89z M309.84,164.08c0.85,0,1.65-0.15,2.41-0.45c0.75-0.3,1.53-0.78,2.31-1.44v-8.94
			c-0.64-0.56-1.35-0.99-2.11-1.3c-0.77-0.31-1.53-0.47-2.3-0.47c-1.59,0-2.86,0.57-3.8,1.72c-0.94,1.15-1.41,2.68-1.41,4.61
			c0,1.88,0.45,3.4,1.35,4.55C307.19,163.51,308.37,164.08,309.84,164.08z M337.34,157.44h-4.72v8.41h-2.45v-21.73h7.2
			c2.32,0,4.12,0.57,5.42,1.72c1.29,1.15,1.94,2.77,1.94,4.86c0,1.57-0.42,2.93-1.27,4.07c-0.85,1.14-2.03,1.91-3.54,2.33l5.56,8.75
			h-2.95L337.34,157.44z M332.62,155.17h4.78c1.51,0,2.69-0.39,3.54-1.18c0.85-0.79,1.27-1.87,1.27-3.26c0-1.37-0.41-2.43-1.24-3.2
			c-0.83-0.76-2.02-1.15-3.57-1.15h-4.78V155.17z M349.19,158.65c0.17,1.68,0.76,3,1.78,3.97c1.02,0.97,2.34,1.46,3.96,1.46
			c0.97,0,1.82-0.09,2.55-0.28c0.72-0.19,1.5-0.52,2.33-0.99l0.78,1.8c-0.89,0.54-1.8,0.93-2.72,1.18
			c-0.92,0.25-1.96,0.37-3.12,0.37c-1.61,0-3.02-0.36-4.22-1.09c-1.2-0.72-2.12-1.71-2.76-2.96c-0.64-1.25-0.96-2.69-0.96-4.3
			c0-1.66,0.34-3.12,1.01-4.41c0.67-1.28,1.57-2.27,2.68-2.96c1.12-0.69,2.35-1.04,3.69-1.04c1.39,0,2.59,0.33,3.62,0.98
			c1.02,0.65,1.82,1.55,2.37,2.68c0.56,1.14,0.84,2.42,0.84,3.85c0,0.58-0.02,1.16-0.06,1.74H349.19z M354.22,151.48
			c-1.32,0-2.44,0.47-3.34,1.4c-0.9,0.93-1.45,2.18-1.66,3.75h9.43v-0.16c0-0.95-0.19-1.82-0.57-2.59
			c-0.38-0.78-0.91-1.37-1.57-1.78C355.86,151.69,355.09,151.48,354.22,151.48z M370.36,166.16c-1.7,0-2.95-0.48-3.76-1.44
			c-0.81-0.96-1.21-2.45-1.21-4.45v-8.5h-2.89v-2.02h2.95l0.4-4.59h1.86v4.59h5.68v2.02h-5.68v8.26c0,2.71,1,4.07,3.01,4.07
			c0.99,0,1.92-0.25,2.79-0.75l0.56,1.8c-0.5,0.31-1.08,0.56-1.75,0.75C371.66,166.07,371,166.16,370.36,166.16z M380.91,166.16
			c-1.57,0-2.81-0.41-3.71-1.24c-0.9-0.83-1.35-1.98-1.35-3.45c0-1.59,0.49-2.82,1.46-3.68c0.97-0.86,2.35-1.29,4.13-1.29h4.93
			v-0.53c0-1.51-0.33-2.62-0.99-3.34c-0.66-0.71-1.69-1.07-3.07-1.07c-1.66,0-3.3,0.46-4.93,1.37l-0.78-1.86
			c1.03-0.58,2.03-1,3-1.27c0.96-0.27,1.99-0.4,3.09-0.4c1.99,0,3.49,0.54,4.5,1.61c1.01,1.08,1.52,2.67,1.52,4.78v10.06h-1.99
			l-0.25-1.8c-0.75,0.66-1.61,1.18-2.61,1.55C382.87,165.97,381.88,166.16,380.91,166.16z M381.47,164.05
			c0.83,0,1.68-0.18,2.56-0.54c0.88-0.36,1.66-0.84,2.34-1.44v-3.63h-4.47c-2.46,0-3.69,0.99-3.69,2.98c0,0.83,0.28,1.47,0.85,1.94
			C379.63,163.82,380.43,164.05,381.47,164.05z M394.16,143.29c0.48,0,0.85,0.14,1.13,0.42c0.28,0.28,0.42,0.64,0.42,1.07
			c0,0.43-0.14,0.79-0.42,1.07c-0.28,0.28-0.66,0.42-1.13,0.42c-0.48,0-0.85-0.14-1.13-0.42s-0.42-0.64-0.42-1.07
			c0-0.43,0.14-0.79,0.42-1.07S393.69,143.29,394.16,143.29z M392.98,149.74h2.33v16.11h-2.33V149.74z M399.87,142.57h2.33v23.28
			h-2.33V142.57z M407.73,158.65c0.17,1.68,0.76,3,1.78,3.97c1.02,0.97,2.34,1.46,3.96,1.46c0.97,0,1.82-0.09,2.54-0.28
			c0.72-0.19,1.5-0.52,2.33-0.99l0.78,1.8c-0.89,0.54-1.8,0.93-2.72,1.18c-0.92,0.25-1.96,0.37-3.12,0.37
			c-1.61,0-3.02-0.36-4.22-1.09c-1.2-0.72-2.12-1.71-2.76-2.96c-0.64-1.25-0.96-2.69-0.96-4.3c0-1.66,0.34-3.12,1.01-4.41
			c0.67-1.28,1.57-2.27,2.68-2.96c1.12-0.69,2.35-1.04,3.69-1.04c1.39,0,2.59,0.33,3.62,0.98c1.02,0.65,1.82,1.55,2.37,2.68
			c0.56,1.14,0.84,2.42,0.84,3.85c0,0.58-0.02,1.16-0.06,1.74H407.73z M412.75,151.48c-1.32,0-2.44,0.47-3.34,1.4
			c-0.9,0.93-1.45,2.18-1.66,3.75h9.43v-0.16c0-0.95-0.19-1.82-0.57-2.59c-0.38-0.78-0.91-1.37-1.57-1.78
			C414.39,151.69,413.62,151.48,412.75,151.48z M431.47,151.79c-0.48-0.08-0.96-0.12-1.46-0.12c-1.66,0-3.27,0.65-4.84,1.96v12.23
			h-2.33v-16.11h1.99l0.25,1.95c1.63-1.53,3.43-2.3,5.4-2.3c0.41,0,0.85,0.05,1.3,0.16L431.47,151.79z"/>
	</g>
</g>
</svg>
